<svg xmlns="http://www.w3.org/2000/svg" xmlns:xlink="http://www.w3.org/1999/xlink" id="visual" viewBox="0 0 900 600" width="900" height="600" version="1.1"><rect x="0" y="0" width="900" height="600" fill="#f9f9f9"/><defs><linearGradient id="grad1_0" x1="33.3%" y1="0%" x2="100%" y2="100%"><stop offset="20%" stop-color="#f9f9f9" stop-opacity="1"/><stop offset="80%" stop-color="#f9f9f9" stop-opacity="1"/></linearGradient></defs><defs><linearGradient id="grad2_0" x1="0%" y1="0%" x2="66.7%" y2="100%"><stop offset="20%" stop-color="#f9f9f9" stop-opacity="1"/><stop offset="80%" stop-color="#f9f9f9" stop-opacity="1"/></linearGradient></defs><g transform="translate(900, 0)"><path d="M0 108.2C-12.5 100.5 -25 92.8 -35.6 85.9C-46.2 79.1 -54.9 73.1 -66.5 66.5C-78 59.8 -92.5 52.6 -99.9 41.4C-107.4 30.2 -107.8 15.1 -108.2 0L0 0Z" fill="#eef3ff"/></g><g transform="translate(0, 600)"><path d="M0 -108.2C14 -106.8 28.1 -105.4 41.4 -99.9C54.7 -94.5 67.4 -84.9 72.8 -72.8C78.3 -60.8 76.6 -46.2 81.3 -33.7C86 -21.1 97.1 -10.6 108.2 0L0 0Z" fill="#eef3ff"/></g></svg>