<svg xmlns="http://www.w3.org/2000/svg" xmlns:xlink="http://www.w3.org/1999/xlink" id="visual" viewBox="0 0 900 600" width="900" height="600" version="1.1"><rect x="0" y="0" width="900" height="600" fill="#001220"/><defs><linearGradient id="grad1_0" x1="33.3%" y1="0%" x2="100%" y2="100%"><stop offset="20%" stop-color="#001220" stop-opacity="1"/><stop offset="80%" stop-color="#001220" stop-opacity="1"/></linearGradient></defs><defs><linearGradient id="grad2_0" x1="0%" y1="0%" x2="66.7%" y2="100%"><stop offset="20%" stop-color="#001220" stop-opacity="1"/><stop offset="80%" stop-color="#001220" stop-opacity="1"/></linearGradient></defs><g transform="translate(900, 0)"><path d="M0 108.2C-13.9 106.6 -27.9 105 -41.4 99.9C-54.9 94.9 -68.1 86.4 -75 75C-81.8 63.5 -82.4 49 -86.8 36C-91.3 23 -99.7 11.5 -108.2 0L0 0Z" fill="#003199"/></g><g transform="translate(0, 600)"><path d="M0 -108.2C11.9 -98.7 23.8 -89.2 34.1 -82.2C44.4 -75.2 53.1 -70.8 65.1 -65.1C77 -59.4 92.2 -52.4 99.9 -41.4C107.7 -30.3 107.9 -15.2 108.2 0L0 0Z" fill="#003199"/></g></svg>