<svg id="visual" viewBox="0 0 900 600" width="900" height="600" xmlns="http://www.w3.org/2000/svg" xmlns:xlink="http://www.w3.org/1999/xlink" version="1.1"><path d="M0 562L8.3 560.5C16.7 559 33.3 556 50 554.8C66.7 553.7 83.3 554.3 100 558.2C116.7 562 133.3 569 150 571.7C166.7 574.3 183.3 572.7 200 567.7C216.7 562.7 233.3 554.3 250 549.3C266.7 544.3 283.3 542.7 300 547.2C316.7 551.7 333.3 562.3 350 564.7C366.7 567 383.3 561 400 560.5C416.7 560 433.3 565 450 568.5C466.7 572 483.3 574 500 569.7C516.7 565.3 533.3 554.7 550 556.5C566.7 558.3 583.3 572.7 600 578.3C616.7 584 633.3 581 650 582.7C666.7 584.3 683.3 590.7 700 587.8C716.7 585 733.3 573 750 566.5C766.7 560 783.3 559 800 562.2C816.7 565.3 833.3 572.7 850 572.5C866.7 572.3 883.3 564.7 891.7 560.8L900 557L900 601L891.7 601C883.3 601 866.7 601 850 601C833.3 601 816.7 601 800 601C783.3 601 766.7 601 750 601C733.3 601 716.7 601 700 601C683.3 601 666.7 601 650 601C633.3 601 616.7 601 600 601C583.3 601 566.7 601 550 601C533.3 601 516.7 601 500 601C483.3 601 466.7 601 450 601C433.3 601 416.7 601 400 601C383.3 601 366.7 601 350 601C333.3 601 316.7 601 300 601C283.3 601 266.7 601 250 601C233.3 601 216.7 601 200 601C183.3 601 166.7 601 150 601C133.3 601 116.7 601 100 601C83.3 601 66.7 601 50 601C33.3 601 16.7 601 8.3 601L0 601Z" fill="#d9e5ff" stroke-linecap="round" stroke-linejoin="miter"></path></svg>